<?xml version="1.0" encoding="utf-8"?>
<!-- Generator: Adobe Illustrator 18.1.1, SVG Export Plug-In . SVG Version: 6.00 Build 0)  -->
<svg version="1.1" id="Layer_1" xmlns="http://www.w3.org/2000/svg" xmlns:xlink="http://www.w3.org/1999/xlink" x="0px" y="0px"
	 viewBox="351.2 -22.6 637.9 73.2" enable-background="new 351.2 -22.6 637.9 73.2" xml:space="preserve">
<g>
	<g>
		<defs>
			<rect id="SVGID_1_" x="328" y="-42.1" width="684.2" height="112.1"/>
		</defs>
		<clipPath id="SVGID_2_">
			<use xlink:href="#SVGID_1_"  overflow="visible"/>
		</clipPath>
		<path clip-path="url(#SVGID_2_)" fill="#E30613" d="M683.2-10.5c1.8-2.2,0.6-6.2,0.6-6.2c-0.1,0.6-0.4,1.5-2,3.1L677.1-9
			c-3,2.9-0.9,7.2-0.9,7.2c0.3-1.8,1.1-2.9,2.2-4.1L683.2-10.5z"/>
	</g>
	<g>
		<defs>
			<rect id="SVGID_3_" x="328" y="-42.1" width="684.2" height="112.1"/>
		</defs>
		<clipPath id="SVGID_4_">
			<use xlink:href="#SVGID_3_"  overflow="visible"/>
		</clipPath>
		<path clip-path="url(#SVGID_4_)" fill="#E30613" d="M682.8-7.8L679-4.2c-2.5,2.5-0.8,6.2-0.8,6.2c0.3-1.5,0.9-2.5,1.9-3.5l3.8-3.7
			c1.6-1.8,0.5-5.3,0.5-5.3C684.4-9.9,684.1-9.1,682.8-7.8"/>
	</g>
	<g>
		<defs>
			<rect id="SVGID_5_" x="328" y="-42.1" width="684.2" height="112.1"/>
		</defs>
		<clipPath id="SVGID_6_">
			<use xlink:href="#SVGID_5_"  overflow="visible"/>
		</clipPath>
		<path clip-path="url(#SVGID_6_)" fill="#A01A7D" d="M655.3,10.5l-2.2-2.2h-8.5v8.1h4.8L655.3,10.5z M704.5,8.3l-2.2,2.2l5.8,5.9
			h4.8V8.3H704.5z M690.3,22.5l-4.9-4.9l-6.5,0l-6.5,0l-4.9,4.9l-4.6-4.6l-5.7,5.7l10.5,10.6l11.2-11.4l0.1,0.1l0.1-0.1l11.2,11.4
			l10.5-10.6l-5.7-5.7L690.3,22.5z M690.1-0.1l-11.2,11.3l-0.1-0.1l-0.1,0.1L667.6-0.1L650,17.7h-5.3v8.1h6.8h1.7l3.1-3.1l0,0l6-6v0
			l5.2-5.1l4.9,4.9l6.5,0l6.5,0l4.9-4.9l5.1,5.1v0l6,6l0,0l3.1,3.1h1.7h6.8v-8.1h-5.3L690.1-0.1z M672.4,32.5l0,0.7
			c0.4-0.2,0.8-0.5,1.2-0.7v4.2h0.7v-4.9h-0.7C673.4,32,672.6,32.4,672.4,32.5 M676.2,31.7c-1,0-1.7,0.7-1.6,1.7
			c0,0.9,0.6,1.5,1.5,1.5c0.5,0,0.9-0.2,1.1-0.7l0,0c0,0.8-0.1,2-1,2c-0.4,0-0.7-0.2-0.7-0.7h-0.7c0,0.8,0.6,1.3,1.4,1.3
			c1.5,0,1.9-1.5,1.9-2.7C677.9,32.8,677.6,31.7,676.2,31.7 M676.2,34.3c-0.6,0-0.9-0.4-0.9-1c0-0.6,0.3-0.9,0.9-0.9
			c0.6,0,0.9,0.4,0.9,0.9C677.1,33.8,676.8,34.3,676.2,34.3 M679.6,31.7c-1,0-1.6,0.7-1.6,1.7c0,0.9,0.6,1.5,1.5,1.5
			c0.5,0,0.9-0.2,1.1-0.7l0,0c0,0.8-0.1,2-1,2c-0.4,0-0.7-0.2-0.7-0.7h-0.8c0,0.8,0.6,1.3,1.4,1.3c1.5,0,1.9-1.5,1.9-2.7
			C681.3,32.8,681.1,31.7,679.6,31.7 M679.6,34.3c-0.6,0-0.8-0.4-0.8-1c0-0.6,0.3-0.9,0.9-0.9c0.6,0,0.9,0.4,0.9,0.9
			C680.6,33.8,680.2,34.3,679.6,34.3 M681.2,31.8v0.6h2.3l-1.6,4.3h0.7l1.8-4.9C684.5,31.8,681.2,31.8,681.2,31.8z"/>
	</g>
	<g>
		<defs>
			<rect id="SVGID_7_" x="328" y="-42.1" width="684.2" height="112.1"/>
		</defs>
		<clipPath id="SVGID_8_">
			<use xlink:href="#SVGID_7_"  overflow="visible"/>
		</clipPath>
		<path clip-path="url(#SVGID_8_)" d="M357.4,10.5L357.4,10.5c1.5-1.9,3.3-2.8,5.6-2.8c2.6,0,4.7,1,6,3.3c1.2-2.2,3.5-3.3,5.9-3.3
			c4.5,0,6,2.9,6,6.9v11.1h-6.2v-8.3c0-1.8,0.1-4.8-2.6-4.8c-2.9,0-3,2.7-3,4.8v8.3h-6.2v-8.3c0-1.9,0-4.9-2.8-4.9s-2.8,3-2.8,4.9
			v8.3h-6.2V8.4h6.2C357.4,8.4,357.4,10.5,357.4,10.5z M383.9,13.6c0-2.1,1-3.5,2.3-4.3c1.4-0.8,3.2-1.1,5-1.1
			c3.4,0,7.3,1.3,7.3,6.4v9.3c0,0.8,0.2,1.4,0.2,1.9h-4.6c-0.1-0.8-0.2-1.6-0.2-2.3h-0.1c-1.2,2-2.9,2.8-5.2,2.8
			c-3.2,0-5.6-1.8-5.6-5.2c0-1.2,0.5-4.1,3.6-5.4c2-0.9,4.6-1,6.7-0.9v-1.6c0-0.7-0.5-2.1-2.4-2.1c-1.8,0-2.4,1.7-2.3,2.5H383.9z
			 M388,20.5c0,1.4,1.1,2.4,2.5,2.4c2.8,0,2.9-3.1,2.9-5.1C391.6,17.7,388,17.7,388,20.5 M406,25.8h-5.1V1.2h5.1V25.8z M411.6,8.7
			V5.4l5.1-1.8v5.2h3.8v3.4h-3.8v7.9c0,2.2,0.3,2.9,2.1,2.9c0.5,0,1.1-0.1,1.6-0.1v3c-0.6,0.3-3.3,0.5-4,0.5c-4,0-4.8-2.1-4.8-5.8
			v-8.4h-3.4V8.7L411.6,8.7L411.6,8.7z M427.9,18.6c0,2.2,0.3,4.3,2.9,4.3c1.8,0,2.7-0.6,3.1-2.2h4.6c-0.4,4.2-3.7,5.6-7.7,5.6
			c-5.9,0-8.2-3.3-8.2-9c0-5.1,3-9.1,8.2-9.1c3.2,0,5.9,1.1,7.3,4.1c0.5,1,0.7,2,0.9,3.1c0.1,1.1,0.1,2.1,0.1,3.3
			C439.1,18.6,427.9,18.6,427.9,18.6z M433.9,15.2c0-1.9-0.5-3.6-3-3.6c-2.4,0-2.9,1.7-2.9,3.6H433.9z M446.6,10.7L446.6,10.7
			c1-1.4,2.9-2.5,4.6-2.5c5.3,0,8,4.5,8,9.1c0,4.4-2.4,9.1-7.4,9.1c-2.2,0-4.1-0.9-5.2-2.9h-0.1v15.7h-5.1v-27
			c0-1.1-0.1-2.3-0.2-3.4h5.2L446.6,10.7z M450.2,22.9c3.3,0,3.7-3,3.7-5.6s-0.4-5.7-3.7-5.7c-2.8,0-3.7,3.3-3.7,5.7
			C446.6,19.6,447.5,22.9,450.2,22.9 M466.6,18.6c0,2.2,0.3,4.3,2.9,4.3c1.8,0,2.7-0.6,3.1-2.2h4.6c-0.4,4.2-3.7,5.6-7.7,5.6
			c-5.9,0-8.2-3.3-8.2-9c0-5.1,3-9.1,8.2-9.1c3.2,0,5.9,1.1,7.3,4.1c0.5,1,0.7,2,0.8,3.1c0.1,1.1,0.1,2.1,0.1,3.3
			C477.8,18.6,466.6,18.6,466.6,18.6z M472.5,15.2c0-1.9-0.5-3.6-3-3.6c-2.4,0-2.9,1.7-2.9,3.6H472.5z M497.8,8.7h2V22
			c0,1.3,0.1,2.7,0.2,3.8h-2.1l-0.1-2.5l-0.1-0.1c-1.2,2.1-3.1,3.1-5.3,3.1c-5.6,0-6-4.9-6-6.9V8.7h2v11c0,3,1.7,4.7,4.5,4.7
			c3.4,0,4.9-2.8,4.9-5.9V8.7L497.8,8.7z M504.4,25.8h-2V12.6c0-1.3-0.1-2.7-0.2-3.8h2.1l0.1,2.5l0.1,0.1c1.2-2.1,3.1-3.1,5.3-3.1
			c5.6,0,6,4.9,6,6.9v10.7h-2v-11c0-3-1.7-4.7-4.5-4.7c-3.4,0-4.9,2.8-4.9,5.9L504.4,25.8L504.4,25.8z M520,3.8h-2V1.2h2V3.8z
			 M520,25.8h-2V8.7h2V25.8z M583.1,3.8h-2V1.2h2V3.8z M583.1,25.8h-2V8.7h2V25.8z M631.1,3.8h-2V1.2h2V3.8z M631.1,25.8h-2V8.7h2
			V25.8z M497.3,3.8h-2V1.2h2V3.8z M491,3.8h-2V1.2h2V3.8z M524.4,8.7l5.9,14.3L536,8.7h2.2l-6.8,17.1h-2.3l-7-17.1
			C522.2,8.7,524.4,8.7,524.4,8.7z M540.2,17.7c0.1,3.6,1.7,6.7,5.9,6.7c2.4,0,4.4-1.7,4.9-4.1h2.1c-1.1,4.1-3.6,6-7.7,6
			c-5.1,0-7.5-4.4-7.5-9.1c0-4.6,2.6-9.1,7.6-9.1c5.7,0,7.8,4.2,7.8,9.5C553.4,17.7,540.2,17.7,540.2,17.7z M551.2,15.9
			c-0.2-3.3-2-5.8-5.5-5.8c-3.3,0-5.1,2.8-5.4,5.8H551.2z M557.8,25.8h-2V12.6c0-1.3-0.1-2.7-0.2-3.8h2.1l0.1,2.5h0.1
			c0.6-1.7,2.1-3,3.8-3c0.7,0,1.4,0,2,0v2c-0.4,0-0.9-0.1-1.3-0.1c-3,0-4.6,2.2-4.7,5.4V25.8z M572.1,8.2c3.2,0,6,1.1,6.2,4.7h-2.2
			c-0.2-2.1-2.1-2.9-4.2-2.9c-1.9,0-3.9,0.8-3.9,2.8c0,2.5,3.3,2.3,7.9,3.9c1.8,0.6,2.9,2.1,2.9,4c0,3.8-3.6,5.6-7.2,5.6
			c-3,0-6.4-1.4-6.4-5.2h2.2c0.2,2.5,2.4,3.3,4.7,3.3c2.2,0,4.5-1,4.5-3.4c0-2.4-2.7-2.9-5.4-3.5c-2.7-0.6-5.4-1.4-5.4-4.6
			C565.9,9.4,569.1,8.2,572.1,8.2 M588.7,10.6h-3.4V8.7h3.4V5.1l2-0.9v4.5h3.9v1.9h-3.9V22c0,1.6,0.8,2.4,2.4,2.4
			c0.6,0,1.2,0,1.8-0.2V26c-0.7,0.2-1.4,0.3-2.1,0.3c-4.3,0-4.1-2.8-4.1-5.1V10.6z M599,17.7c0.1,3.6,1.7,6.7,5.9,6.7
			c2.4,0,4.4-1.7,4.9-4.1h2.1c-1.1,4.1-3.6,6-7.7,6c-5.1,0-7.5-4.4-7.5-9.1c0-4.6,2.6-9.1,7.6-9.1c5.7,0,7.8,4.2,7.8,9.5
			C612.2,17.7,599,17.7,599,17.7z M610,15.9c-0.2-3.3-2-5.8-5.5-5.8c-3.3,0-5.1,2.8-5.4,5.8H610z M620.6,8.2c3.2,0,6,1.1,6.2,4.7
			h-2.2c-0.2-2.1-2.1-2.9-4.2-2.9c-1.9,0-3.8,0.8-3.8,2.8c0,2.5,3.3,2.3,7.9,3.9c1.8,0.6,2.9,2.1,2.9,4c0,3.8-3.6,5.6-7.2,5.6
			c-3,0-6.4-1.4-6.4-5.2h2.2c0.2,2.5,2.4,3.3,4.7,3.3c2.2,0,4.5-1,4.5-3.4c0-2.4-2.7-2.9-5.4-3.5c-2.7-0.6-5.4-1.4-5.4-4.6
			C614.3,9.4,617.6,8.2,620.6,8.2 M351.2,29.9h1.2v1.3h-1.2V29.9z M351.2,32.7h1.2v6.4h-1.2V32.7z M362,32.5c1.2,0,2.6,0.5,2.5,2
			h-1.3c0-0.8-0.6-1.1-1.3-1.1c-0.6,0-1.2,0.3-1.2,1c0,0.7,1.1,0.8,1.6,0.9c1.1,0.3,2.3,0.5,2.3,1.9c0,1.6-1.5,2-2.8,2
			c-1.3,0-2.4-0.6-2.4-2.1h1.3c0,0.8,0.6,1.2,1.3,1.2c0.7,0,1.4-0.3,1.4-1.1c0-1.4-3.9-0.4-3.9-2.8C359.5,33.1,360.8,32.5,362,32.5
			 M372.6,32.7v-1.4l1.2-0.4v1.7l1.5,0v0.9l-1.5,0v4.1c0,0.5,0.4,0.7,0.8,0.7c0.2,0,0.5,0,0.6-0.1v0.9c-0.3,0-0.5,0.1-0.8,0.1
			c-0.3,0-0.5,0-0.8-0.1c-0.2,0-0.5-0.1-0.7-0.4c-0.2-0.3-0.3-0.3-0.3-1.2v-4l-1.1,0v-0.9L372.6,32.7z M386.1,35.1
			c0-1.1-0.1-1.8-1.3-1.8c-0.6,0-1.2,0.4-1.2,1h-1.3c0.1-1.4,1.2-1.9,2.4-1.9c1.3,0,2.6,0.4,2.6,2.2v3c0,0.3,0,0.8,0.1,1.3h-0.8
			c-0.1,0-0.3,0.1-0.3-0.1c0-0.3-0.1-0.6-0.1-0.9h0c-0.4,0.8-1.1,1.1-2,1.1c-1.1,0-2.2-0.6-2.2-1.8c0-1.8,1.6-2.3,3.1-2.3
			L386.1,35.1L386.1,35.1z M384.9,36c-0.7,0-1.7,0.3-1.7,1.2c0,0.8,0.5,1.2,1.3,1.2c1.4,0,1.7-1.2,1.7-2.4H384.9z M395.5,33.7
			L395.5,33.7c0.4-0.8,1.3-1.1,2-1.1c0.4,0,2.4,0.1,2.4,2.2v4.4h-1.2v-4c0-1.1-0.4-1.6-1.5-1.6c0,0-0.7,0-1.2,0.5
			c-0.2,0.2-0.5,0.5-0.5,1.7v3.5h-1.2v-6.4h1.2C395.5,32.7,395.5,33.7,395.5,33.7z M408.2,39.1H407c0-0.4,0.1-0.8,0.1-1v-8.2h1.2
			v3.7h0c0.4-0.8,1.2-1.1,2-1.1c2,0,2.9,1.6,2.9,3.4c0,1.6-0.8,3.4-2.7,3.4c-0.9,0-1.8-0.3-2.2-1.2h0l0,0.1L408.2,39.1z M410.1,33.4
			c-1.4,0-1.8,1.3-1.8,2.5c0,1.2,0.3,2.5,1.8,2.5c1.4,0,1.8-1.3,1.8-2.5S411.5,33.4,410.1,33.4 M424.5,32.7h1.2v6.4h-1.2v-0.9h0
			c-0.5,0.8-1.3,1.1-2.2,1.1c-1.3,0-2.1-1-2.1-2.3v-4.3h1.2v3.8c0,1.1,0.3,1.9,1.4,1.9c0.5,0,1.2-0.3,1.4-0.9
			c0.2-0.6,0.2-1.3,0.2-1.5C424.5,36,424.5,32.7,424.5,32.7z M432.8,29.9h1.2v9.2h-1.2V29.9z M439.8,27.9h-88.6v0.7h88.6
			C439.8,28.6,439.8,27.9,439.8,27.9z M448.2,28.6h183v-0.7h-183V28.6z M495.3,33.6l-1.9,5.5h-1.2l-1.3-4.5h0l-1.4,4.5h-1.2
			l-1.8-5.5h1.1l1.3,4.4h0l1.4-4.4h1.4l1.2,4.4h0l1.4-4.4H495.3z M506.8,33.6l-2,5.5h-1.2l-1.3-4.5h0l-1.4,4.5h-1.2l-1.8-5.5h1.1
			l1.3,4.4h0l1.4-4.4h1.3l1.2,4.4h0l1.4-4.4H506.8z M518.4,33.6l-2,5.5h-1.2l-1.3-4.5h0l-1.4,4.5h-1.2l-1.8-5.5h1.1l1.3,4.4h0
			l1.4-4.4h1.4l1.2,4.4h0l1.4-4.4H518.4z M520.8,37.8h1.3v1.3h-1.3V37.8z M527.3,34.4L527.3,34.4c0.4-0.7,1-1,1.6-1
			c1,0,1.7,0.4,1.9,1c0.4-0.7,1-1,1.8-1c1.3,0,2.1,0.8,2.1,1.8v3.9h-1.1v-3.3c0-0.8-0.1-1.6-1.3-1.6c-0.3,0-1,0.2-1.2,0.9
			c-0.1,0.5-0.1,1.1-0.1,1.2v2.8h-1v-3.3c0-1-0.2-1.6-1.2-1.6c-0.4,0-1,0.2-1.4,0.9c-0.1,0.3-0.1,1-0.1,1.1v2.8h-1v-5.5h1V34.4z
			 M542.3,35.7c0-1-0.1-1.5-1.2-1.5c-0.5,0-1,0.3-1,0.9H539c0.1-1.2,1-1.6,2.1-1.6c1.1,0,2.3,0.3,2.3,1.9v2.6c0,0.2,0,0.7,0,1.2
			h-0.7c-0.1,0-0.3,0.1-0.3-0.1c0-0.3,0-0.5-0.1-0.8h0c-0.3,0.7-1,1-1.7,1c-1,0-1.9-0.5-1.9-1.6c0-1.6,1.4-2,2.7-2H542.3z
			 M541.3,36.4c-0.6,0-1.5,0.3-1.5,1.1c0,0.7,0.5,1,1.1,1c1.2,0,1.5-1.1,1.4-2.1L541.3,36.4L541.3,36.4z M547.6,31.1h1v7.9h-1V31.1z
			 M553.1,33.6v-1.2l1-0.3v1.5l1.3,0v0.8l-1.3,0v3.6c0,0.4,0.3,0.6,0.7,0.6c0.2,0,0.4,0,0.5-0.1v0.8c-0.2,0-0.5,0.1-0.7,0.1
			c-0.3,0-0.5,0-0.7-0.1c-0.2,0-0.4-0.1-0.6-0.4c-0.2-0.3-0.2-0.3-0.2-1v-3.5l-0.9,0v-0.8L553.1,33.6z M559.8,36.5
			c-0.1,1,0.3,2,1.4,2c0.8,0,1.2-0.3,1.3-1.1h1.1c-0.2,1.3-1.1,1.9-2.5,1.9c-1.8,0-2.5-1.3-2.5-2.9c0-1.6,0.8-3,2.6-3
			c1.6,0,2.4,1.1,2.4,2.6v0.5H559.8z M562.6,35.8c0-0.9-0.4-1.6-1.4-1.6c-0.9,0-1.4,0.7-1.4,1.6H562.6z M567.1,34.6
			c0-0.3,0-0.7-0.1-1h1.1l0,0.9h0c0.3-0.8,1-1,1.9-1c1.5,0,2.3,1.4,2.3,2.9c0,1.4-0.7,2.9-2.7,2.9c-0.4,0-1.2-0.2-1.5-0.8h0v2.7h-1
			V34.6z M569.7,34.2c-1.2,0-1.6,1.2-1.6,2.2c0,1,0.3,2.2,1.5,2.2c1.3,0,1.7-1.1,1.7-2.2C571.3,35.3,571,34.2,569.7,34.2 M577,36.5
			c-0.1,1,0.3,2,1.4,2c0.8,0,1.2-0.3,1.3-1.1h1.1c-0.2,1.3-1.1,1.9-2.5,1.9c-1.8,0-2.5-1.3-2.5-2.9c0-1.6,0.8-3,2.6-3
			c1.7,0,2.4,1.1,2.4,2.6v0.5H577z M579.8,35.8c0-0.9-0.4-1.6-1.4-1.6c-0.9,0-1.4,0.7-1.4,1.6H579.8z M584.2,37.8h1.3v1.3h-1.3V37.8
			z M590.4,36.5c-0.1,1,0.3,2,1.4,2c0.8,0,1.2-0.3,1.3-1.1h1.1c-0.2,1.3-1.1,1.9-2.5,1.9c-1.8,0-2.5-1.3-2.5-2.9c0-1.6,0.8-3,2.6-3
			c1.7,0,2.4,1.1,2.4,2.6v0.5H590.4z M593.2,35.8c0-0.9-0.4-1.6-1.4-1.6c-0.9,0-1.4,0.7-1.4,1.6H593.2z M602.1,31.1h1v7
			c0,0.3,0,0.7,0.1,1h-1.1l0-0.8v-0.1h0c-0.4,0.8-1.1,1-1.9,1c-1.6,0-2.3-1.5-2.3-2.9c0-1.5,0.8-2.9,2.5-2.9c0.7,0,1.4,0.3,1.7,0.9
			h0V31.1z M600.5,38.5c1.3,0,1.6-1.2,1.6-2.2c0-1-0.4-2.2-1.6-2.2c-1.3,0-1.6,1.2-1.6,2.2C599,37.4,599.3,38.5,600.5,38.5
			 M611.1,33.6h1v5.5h-1v-0.8h0c-0.4,0.7-1.1,1-1.9,1c-1.2,0-1.8-0.9-1.8-2v-3.7h1v3.3c0,1,0.2,1.7,1.2,1.7c0.4,0,1-0.2,1.2-0.8
			c0.2-0.5,0.2-1.2,0.2-1.3V33.6L611.1,33.6z M616.4,37.8h1.3v1.3h-1.3V37.8z M622,33.6v-1.2l1-0.3v1.5l1.3,0v0.8l-1.3,0v3.6
			c0,0.4,0.3,0.6,0.7,0.6c0.2,0,0.4,0,0.5-0.1v0.8c-0.2,0-0.5,0.1-0.7,0.1c-0.3,0-0.5,0-0.7-0.1c-0.2,0-0.4-0.1-0.6-0.4
			c-0.2-0.3-0.2-0.3-0.2-1v-3.5l-0.9,0v-0.8L622,33.6z M629,39.1h-1v-5.5h1v1.1h0c0.2-0.8,0.9-1.1,1.6-1.1c0.1,0,0.2,0,0.4,0v1
			c-0.1-0.1-0.3-0.1-0.5-0.1c-1.3,0-1.5,0.7-1.5,1.9V39.1z"/>
	</g>
	<g>
		<defs>
			<rect id="SVGID_9_" x="328" y="-42.1" width="684.2" height="112.1"/>
		</defs>
		<clipPath id="SVGID_10_">
			<use xlink:href="#SVGID_9_"  overflow="visible"/>
		</clipPath>
		<path clip-path="url(#SVGID_10_)" d="M733.8,10.5L733.8,10.5c1.5-1.9,3.3-2.8,5.6-2.8c2.6,0,4.7,1,6,3.3c1.2-2.2,3.5-3.3,5.9-3.3
			c4.5,0,6,2.9,6,6.9v11.1H751v-8.3c0-1.8,0.1-4.8-2.6-4.8c-2.9,0-3,2.7-3,4.8v8.3h-6.2v-8.3c0-1.9,0-4.9-2.8-4.9
			c-2.7,0-2.8,3-2.8,4.9v8.3h-6.2V8.4h6.2V10.5L733.8,10.5z M760.2,13.6c0-2.1,1-3.5,2.3-4.3c1.4-0.8,3.2-1.1,5-1.1
			c3.4,0,7.3,1.3,7.3,6.4v9.3c0,0.8,0.2,1.4,0.2,1.9h-4.6c-0.1-0.8-0.2-1.6-0.2-2.3h-0.1c-1.2,2-2.9,2.8-5.2,2.8
			c-3.2,0-5.6-1.8-5.6-5.2c0-1.2,0.5-4.1,3.6-5.4c2-0.9,4.6-1,6.7-0.9v-1.6c0-0.7-0.5-2.1-2.3-2.1c-1.8,0-2.4,1.7-2.3,2.5H760.2z
			 M764.4,20.5c0,1.4,1,2.4,2.5,2.4c2.8,0,2.9-3.1,2.9-5.1C768,17.7,764.4,17.7,764.4,20.5 M782.4,25.8h-5.1V1.2h5.1V25.8z
			 M787.9,8.7V5.4l5.1-1.8v5.2h3.8v3.4H793v7.9c0,2.2,0.3,2.9,2.1,2.9c0.5,0,1.1-0.1,1.6-0.1v3c-0.6,0.3-3.3,0.5-4,0.5
			c-4,0-4.8-2.1-4.8-5.8v-8.4h-3.4V8.7L787.9,8.7L787.9,8.7z M804.3,18.6c0,2.2,0.3,4.3,2.9,4.3c1.8,0,2.7-0.6,3.1-2.2h4.6
			c-0.4,4.2-3.7,5.6-7.7,5.6c-5.9,0-8.2-3.3-8.2-9c0-5.1,3-9.1,8.2-9.1c3.2,0,5.8,1.1,7.3,4.1c0.5,1,0.7,2,0.8,3.1
			c0.1,1.1,0.1,2.1,0.1,3.3C815.5,18.6,804.3,18.6,804.3,18.6z M810.2,15.2c0-1.9-0.5-3.6-3-3.6c-2.3,0-2.9,1.7-2.9,3.6H810.2z
			 M822.9,10.7L822.9,10.7c1-1.4,2.9-2.5,4.6-2.5c5.3,0,8,4.5,8,9.1c0,4.4-2.3,9.1-7.3,9.1c-2.2,0-4.1-0.9-5.2-2.9h-0.1v15.7h-5.1
			v-27c0-1.1-0.1-2.3-0.2-3.4h5.2L822.9,10.7z M826.6,22.9c3.3,0,3.7-3,3.7-5.6s-0.4-5.7-3.7-5.7c-2.8,0-3.7,3.3-3.7,5.7
			C822.9,19.6,823.9,22.9,826.6,22.9 M843,18.6c0,2.2,0.3,4.3,2.9,4.3c1.8,0,2.7-0.6,3.1-2.2h4.6c-0.4,4.2-3.7,5.6-7.7,5.6
			c-5.9,0-8.2-3.3-8.2-9c0-5.1,3-9.1,8.2-9.1c3.2,0,5.9,1.1,7.3,4.1c0.5,1,0.7,2,0.9,3.1c0.1,1.1,0.1,2.1,0.1,3.3
			C854.2,18.6,843,18.6,843,18.6z M848.9,15.2c0-1.9-0.5-3.6-3-3.6c-2.3,0-2.9,1.7-2.9,3.6H848.9z M727.6,29.9h1.2v1.3h-1.2V29.9z
			 M727.6,32.7h1.2v6.4h-1.2V32.7z M738.4,32.5c1.2,0,2.6,0.5,2.5,2h-1.3c0.1-0.8-0.6-1.1-1.3-1.1c-0.6,0-1.2,0.3-1.2,1
			c0,0.7,1.1,0.8,1.5,0.9c1.1,0.3,2.3,0.5,2.3,1.9c0,1.6-1.5,2-2.8,2c-1.3,0-2.5-0.6-2.4-2.1h1.3c0,0.8,0.6,1.2,1.3,1.2
			c0.7,0,1.4-0.3,1.4-1.1c0-1.4-3.9-0.4-3.9-2.8C735.9,33.1,737.2,32.5,738.4,32.5 M749,32.7v-1.4l1.2-0.4v1.7l1.5,0v0.9l-1.5,0v4.1
			c0,0.5,0.4,0.7,0.8,0.7c0.2,0,0.4,0,0.6-0.1v0.9c-0.3,0-0.6,0.1-0.8,0.1c-0.3,0-0.5,0-0.8-0.1c-0.2,0-0.5-0.1-0.7-0.4
			c-0.2-0.3-0.3-0.3-0.3-1.2v-4l-1.1,0v-0.9L749,32.7z M762.5,35.1c0-1.1-0.1-1.8-1.3-1.8c-0.6,0-1.2,0.4-1.2,1h-1.3
			c0.1-1.4,1.2-1.9,2.4-1.9c1.3,0,2.6,0.4,2.6,2.2v3c0,0.3,0,0.8,0.1,1.3H763c-0.1,0-0.3,0.1-0.3-0.1c0-0.3-0.1-0.6-0.1-0.9h0
			c-0.4,0.8-1.1,1.1-2,1.1c-1.1,0-2.2-0.6-2.2-1.8c0-1.8,1.6-2.3,3.1-2.3L762.5,35.1L762.5,35.1z M761.3,36c-0.7,0-1.7,0.3-1.7,1.2
			c0,0.8,0.5,1.2,1.3,1.2c1.4,0,1.7-1.2,1.7-2.4H761.3z M771.9,33.7L771.9,33.7c0.4-0.8,1.3-1.1,2-1.1c0.4,0,2.4,0.1,2.4,2.2v4.4
			h-1.2v-4c0-1.1-0.4-1.6-1.5-1.6c0,0-0.7,0-1.2,0.5c-0.2,0.2-0.5,0.5-0.5,1.7v3.5h-1.2v-6.4h1.2V33.7L771.9,33.7z M784.6,39.1h-1.2
			c0-0.4,0.1-0.8,0.1-1v-8.2h1.2v3.7h0c0.4-0.8,1.2-1.1,2-1.1c2,0,2.9,1.6,2.9,3.4c0,1.6-0.8,3.4-2.7,3.4c-0.9,0-1.8-0.3-2.2-1.2h0
			l0,0.1L784.6,39.1z M786.4,33.4c-1.4,0-1.8,1.3-1.8,2.5c0,1.2,0.3,2.5,1.8,2.5c1.4,0,1.8-1.3,1.8-2.5S787.9,33.4,786.4,33.4
			 M800.8,32.7h1.2v6.4h-1.2v-0.9h0c-0.5,0.8-1.3,1.1-2.2,1.1c-1.3,0-2.1-1-2.1-2.3v-4.3h1.2v3.8c0,1.1,0.3,1.9,1.4,1.9
			c0.5,0,1.2-0.3,1.4-0.9c0.2-0.6,0.2-1.3,0.2-1.5L800.8,32.7L800.8,32.7z M809.1,29.9h1.2v9.2h-1.2V29.9z M874.2,8.8h2V22
			c0,1.3,0.1,2.7,0.2,3.8h-2.1l-0.1-2.5l-0.1-0.1c-1.2,2.1-3.1,3.1-5.3,3.1c-5.6,0-6-4.9-6-6.9V8.8h2v11c0,3,1.7,4.7,4.5,4.7
			c3.4,0,4.9-2.8,4.9-5.9L874.2,8.8L874.2,8.8z M880.8,25.8h-2V12.6c0-1.3-0.1-2.7-0.2-3.8h2.1l0.1,2.5l0.1,0.1
			c1.2-2.1,3.1-3.1,5.3-3.1c5.6,0,6,4.9,6,6.9v10.7h-2v-11c0-3-1.7-4.7-4.5-4.7c-3.4,0-4.9,2.8-4.9,5.9V25.8z M896.4,3.8h-2V1.3h2
			V3.8z M896.4,25.8h-2V8.8h2V25.8z M959.5,3.8h-2V1.3h2V3.8z M959.5,25.8h-2V8.8h2V25.8z M900.8,8.8l5.9,14.3l5.7-14.3h2.2
			l-6.8,17.1h-2.3l-7-17.1C898.6,8.8,900.8,8.8,900.8,8.8z M916.6,17.8c0.1,3.6,1.7,6.7,5.9,6.7c2.4,0,4.4-1.7,4.9-4.1h2.1
			c-1.1,4.1-3.6,6-7.7,6c-5.1,0-7.5-4.4-7.5-9.1c0-4.6,2.6-9.1,7.6-9.1c5.7,0,7.8,4.2,7.8,9.5H916.6z M927.6,15.9
			c-0.2-3.3-2-5.8-5.5-5.8c-3.3,0-5.1,2.8-5.4,5.8H927.6z M934.2,25.8h-2V12.6c0-1.3-0.1-2.7-0.2-3.8h2.1l0.1,2.5h0.1
			c0.6-1.7,2.1-3,3.8-3c0.7,0,1.4,0,2,0v2c-0.4,0-0.8-0.1-1.3-0.1c-3,0-4.6,2.2-4.7,5.4V25.8z M948.5,8.2c3.2,0,6,1.1,6.2,4.7h-2.2
			c-0.2-2.1-2.1-2.9-4.2-2.9c-1.9,0-3.8,0.8-3.8,2.8c0,2.5,3.3,2.3,7.9,3.9c1.8,0.6,2.9,2.1,2.9,4c0,3.8-3.6,5.6-7.2,5.6
			c-3,0-6.4-1.4-6.4-5.2h2.2c0.2,2.6,2.4,3.3,4.7,3.3c2.2,0,4.5-1,4.5-3.4c0-2.5-2.7-2.9-5.4-3.5c-2.7-0.6-5.4-1.4-5.4-4.6
			C942.3,9.5,945.5,8.2,948.5,8.2 M965,10.6h-3.4V8.8h3.4V5.1l2-0.9v4.5h3.9v1.9h-3.9v11.4c0,1.6,0.8,2.4,2.4,2.4
			c0.6,0,1.2,0,1.8-0.2v1.8c-0.6,0.2-1.4,0.3-2.1,0.3c-4.3,0-4.1-2.8-4.1-5.1L965,10.6L965,10.6z M975.1,8.7l5.8,14.4l5.8-14.4h2.2
			l-9.5,23.8h-2.3l2.6-6.6l-7.1-17.2H975.1z M815,28h-87.4v0.7H815V28z M976.1,28H825.8v0.7h150.3V28z M983.8,28.7h5.2V28h-5.2V28.7
			z M871.7,33.6l-2,5.5h-1.2l-1.3-4.5h0l-1.4,4.5h-1.2l-1.8-5.5h1.1l1.3,4.4h0l1.4-4.4h1.3l1.2,4.4h0l1.4-4.4H871.7z M882.1,33.6
			l-2,5.5H879l-1.3-4.5h0l-1.4,4.5H875l-1.8-5.5h1.1l1.3,4.4h0l1.4-4.4h1.4l1.2,4.4h0l1.4-4.4H882.1z M892.6,33.6l-1.9,5.5h-1.2
			l-1.3-4.5h0l-1.4,4.5h-1.2l-1.8-5.5h1.1l1.3,4.4h0l1.4-4.4h1.4l1.2,4.4h0l1.4-4.4H892.6z M893.9,37.8h1.3v1.3h-1.3V37.8z
			 M899.4,34.4L899.4,34.4c0.4-0.7,1-1,1.6-1c1,0,1.7,0.4,1.9,1c0.4-0.7,1-1,1.8-1c1.3,0,2.1,0.8,2.1,1.8v3.9h-1.1v-3.3
			c0-0.8-0.1-1.6-1.3-1.6c-0.3,0-1,0.2-1.2,0.9c-0.1,0.5-0.1,1.1-0.1,1.2v2.8h-1v-3.3c0-1-0.2-1.6-1.2-1.6c-0.4,0-1,0.2-1.4,0.9
			c-0.1,0.3-0.1,1-0.1,1.1v2.8h-1v-5.5h1L899.4,34.4L899.4,34.4z M913.3,35.7c0-1-0.1-1.5-1.2-1.5c-0.5,0-1,0.3-1,0.9H910
			c0.1-1.2,1-1.6,2.1-1.6c1.1,0,2.3,0.3,2.3,1.9v2.6c0,0.2,0,0.7,0,1.2h-0.7c-0.1,0-0.3,0.1-0.3-0.1c0-0.3,0-0.5-0.1-0.8h0
			c-0.3,0.7-1,1-1.7,1c-1,0-1.9-0.5-1.9-1.6c0-1.6,1.4-2,2.7-2H913.3z M912.2,36.4c-0.6,0-1.5,0.3-1.5,1.1c0,0.7,0.5,1,1.1,1
			c1.2,0,1.5-1.1,1.4-2.1L912.2,36.4L912.2,36.4z M917.5,31.1h1v7.9h-1V31.1z M921.9,33.6v-1.2l1-0.3v1.5l1.3,0v0.8l-1.3,0v3.6
			c0,0.4,0.3,0.6,0.7,0.6c0.2,0,0.4,0,0.6-0.1v0.8c-0.2,0-0.5,0.1-0.7,0.1c-0.3,0-0.4,0-0.7-0.1c-0.2,0-0.4-0.1-0.6-0.4
			c-0.2-0.3-0.2-0.3-0.2-1v-3.5l-0.9,0v-0.8L921.9,33.6z M927.5,36.5c-0.1,1,0.3,2,1.4,2c0.8,0,1.2-0.3,1.3-1.1h1.1
			c-0.2,1.3-1.1,1.9-2.5,1.9c-1.8,0-2.5-1.3-2.5-2.9c0-1.6,0.8-3,2.6-3c1.7,0,2.4,1.1,2.4,2.6v0.5H927.5z M930.2,35.8
			c0-0.9-0.4-1.6-1.4-1.6c-0.9,0-1.4,0.7-1.4,1.6H930.2z M933.7,34.6c0-0.3,0-0.7-0.1-1h1.1l0,0.9h0c0.3-0.8,1-1,1.9-1
			c1.6,0,2.3,1.4,2.3,2.9c0,1.4-0.7,2.9-2.7,2.9c-0.5,0-1.2-0.2-1.5-0.8h0v2.7h-1V34.6z M936.3,34.2c-1.2,0-1.6,1.2-1.6,2.2
			c0,1,0.3,2.2,1.5,2.2c1.3,0,1.7-1.1,1.7-2.2C937.9,35.3,937.6,34.2,936.3,34.2 M942.5,36.5c-0.1,1,0.3,2,1.4,2
			c0.8,0,1.2-0.3,1.3-1.1h1.1c-0.2,1.3-1.1,1.9-2.5,1.9c-1.8,0-2.5-1.3-2.5-2.9c0-1.6,0.8-3,2.6-3c1.6,0,2.4,1.1,2.4,2.6v0.5H942.5z
			 M945.3,35.8c0-0.9-0.4-1.6-1.4-1.6c-0.9,0-1.4,0.7-1.4,1.6H945.3z M948.6,37.8h1.3v1.3h-1.3V37.8z M953.8,36.5
			c-0.1,1,0.3,2,1.4,2c0.8,0,1.2-0.3,1.3-1.1h1.1c-0.2,1.3-1.1,1.9-2.5,1.9c-1.8,0-2.5-1.3-2.5-2.9c0-1.6,0.8-3,2.6-3
			c1.7,0,2.4,1.1,2.4,2.6v0.5H953.8z M956.6,35.8c0-0.9-0.4-1.6-1.4-1.6c-0.9,0-1.4,0.7-1.4,1.6H956.6z M964.3,31.1h1v7
			c0,0.3,0,0.7,0.1,1h-1.1l0-0.8v-0.1h0c-0.4,0.8-1.1,1-1.9,1c-1.6,0-2.3-1.5-2.3-2.9c0-1.5,0.8-2.9,2.5-2.9c0.7,0,1.4,0.3,1.7,0.9
			h0L964.3,31.1L964.3,31.1z M962.8,38.5c1.3,0,1.6-1.2,1.6-2.2c0-1-0.4-2.2-1.6-2.2c-1.3,0-1.6,1.2-1.6,2.2
			C961.2,37.4,961.6,38.5,962.8,38.5 M972.2,33.6h1v5.5h-1v-0.8h0c-0.4,0.7-1.1,1-1.9,1c-1.2,0-1.8-0.9-1.8-2v-3.7h1v3.3
			c0,1,0.2,1.7,1.2,1.7c0.4,0,1-0.2,1.2-0.8c0.2-0.5,0.2-1.2,0.2-1.3L972.2,33.6L972.2,33.6z M976.4,37.8h1.3v1.3h-1.3V37.8z
			 M980.9,33.6v-1.2l1-0.3v1.5l1.3,0v0.8l-1.3,0v3.6c0,0.4,0.3,0.6,0.7,0.6c0.2,0,0.4,0,0.5-0.1v0.8c-0.2,0-0.5,0.1-0.7,0.1
			c-0.3,0-0.4,0-0.7-0.1c-0.2,0-0.4-0.1-0.6-0.4c-0.2-0.3-0.2-0.3-0.2-1v-3.5l-0.9,0v-0.8L980.9,33.6z M986.9,39.1h-1v-5.5h1v1.1h0
			c0.2-0.8,0.9-1.1,1.6-1.1c0.1,0,0.2,0,0.4,0v1c-0.1-0.1-0.3-0.1-0.4-0.1c-1.3,0-1.6,0.7-1.6,1.9L986.9,39.1L986.9,39.1z"/>
	</g>
	<g>
		<defs>
			<rect id="SVGID_11_" x="328" y="-42.1" width="684.2" height="112.1"/>
		</defs>
		<clipPath id="SVGID_12_">
			<use xlink:href="#SVGID_11_"  overflow="visible"/>
		</clipPath>
		<path clip-path="url(#SVGID_12_)" d="M644.3,43.9v-5.2h1.7l0.8,3.5h0l0.9-3.5h1.7v5.2h-1.1v-4h0l-1,4h-1l-1-4h0v4H644.3z
			 M653.4,43.2c0,0.2,0,0.4,0,0.7h-0.9l0-0.5h0c-0.2,0.4-0.5,0.6-0.9,0.6c-0.7,0-1-0.5-1-1.2c0-1.2,0.9-1.2,1.9-1.2v-0.3
			c0-0.3,0-0.5-0.4-0.5c-0.4,0-0.4,0.3-0.4,0.6h-1c0-0.4,0.1-0.7,0.4-0.9c0.2-0.2,0.6-0.2,0.9-0.2c1.3,0,1.4,0.6,1.4,1.2V43.2z
			 M651.5,42.8c0,0.3,0,0.6,0.4,0.6c0.6,0,0.5-0.8,0.5-1.2C651.9,42.2,651.5,42.1,651.5,42.8 M655.5,40.3v0.5h0
			c0.2-0.4,0.5-0.5,0.9-0.5v0.9c-0.9-0.1-0.9,0.5-0.9,0.8v2h-1v-3.6H655.5z M658.2,40.7L658.2,40.7c0.2-0.3,0.5-0.4,0.9-0.4
			c0.4,0,0.6,0.2,0.8,0.5c0.2-0.3,0.5-0.5,0.9-0.5c0.5,0,0.9,0.3,0.9,0.8v2.9h-1v-2.5c0-0.3-0.1-0.6-0.4-0.6c-0.3,0-0.4,0.2-0.4,0.6
			v2.5h-1v-2.5c0-0.3-0.1-0.6-0.4-0.6c-0.3,0-0.4,0.2-0.4,0.6v2.5h-1v-3.6h1V40.7z M665.6,43.2c0,0.2,0,0.4,0,0.7h-0.9l0-0.5h0
			c-0.2,0.4-0.5,0.6-0.9,0.6c-0.7,0-1-0.5-1-1.2c0-1.2,0.9-1.2,1.9-1.2v-0.3c0-0.3,0-0.5-0.4-0.5c-0.4,0-0.4,0.3-0.4,0.6h-1
			c0-0.4,0.1-0.7,0.4-0.9c0.2-0.2,0.6-0.2,0.9-0.2c1.3,0,1.4,0.6,1.4,1.2L665.6,43.2L665.6,43.2z M663.7,42.8c0,0.3,0,0.6,0.4,0.6
			c0.6,0,0.5-0.8,0.5-1.2C664.1,42.2,663.7,42.1,663.7,42.8 M667.7,40.3v0.5h0c0.2-0.4,0.5-0.5,0.9-0.5v0.9
			c-0.9-0.1-0.9,0.5-0.9,0.8v2h-1v-3.6H667.7z M672.2,43.2c0,0.2,0,0.4,0,0.7h-0.9l0-0.5h0c-0.2,0.4-0.5,0.6-0.9,0.6
			c-0.7,0-1-0.5-1-1.2c0-1.2,0.9-1.2,1.9-1.2v-0.3c0-0.3,0-0.5-0.4-0.5c-0.4,0-0.4,0.3-0.4,0.6h-1c0-0.4,0.1-0.7,0.4-0.9
			c0.2-0.2,0.6-0.2,0.9-0.2c1.3,0,1.5,0.6,1.5,1.2L672.2,43.2L672.2,43.2z M670.4,42.8c0,0.3,0,0.6,0.4,0.6c0.6,0,0.5-0.8,0.5-1.2
			C670.8,42.2,670.4,42.1,670.4,42.8 M675.4,43.9v-5.2h2.8v0.8h-1.7v1.3h1.6v0.8h-1.6v1.5h1.8v0.8H675.4z M682.1,40.3v3.8
			c0,0.3,0,1.2-1.4,1.2c-0.8,0-1.4-0.2-1.4-1.1h1c0,0.2,0,0.3,0.1,0.4c0.1,0.1,0.2,0.1,0.3,0.1c0.3,0,0.4-0.2,0.4-0.6v-0.7h0
			c-0.2,0.3-0.4,0.4-0.8,0.4c-1.1,0-1.1-1-1.1-1.8c0-0.8,0-1.8,1.1-1.8c0.4,0,0.7,0.2,0.8,0.5h0v-0.4
			C681.1,40.3,682.1,40.3,682.1,40.3z M679.9,38.9c0.1,0.4,0.4,0.5,0.8,0.5c0.4,0,0.6-0.2,0.7-0.5h0.4c-0.1,0.7-0.5,1-1.2,1
			c-0.7,0-1.1-0.4-1.1-1H679.9z M680.7,43.2c0.4,0,0.4-0.4,0.4-1.1c0-0.8,0-1.2-0.4-1.2c-0.4,0-0.4,0.3-0.4,1.4
			C680.2,42.5,680.2,43.2,680.7,43.2 M684.4,39.5h-1v-0.8h1V39.5z M684.4,43.9h-1v-3.6h1V43.9z M685.2,40.3h0.4v-0.6l1-0.4v1h0.5
			v0.6h-0.5v1.9c0,0.3,0,0.5,0.3,0.5c0.1,0,0.1,0,0.2,0v0.6c-0.1,0-0.3,0-0.5,0c-0.9,0-1-0.6-1-0.8v-2.2h-0.4L685.2,40.3L685.2,40.3
			z M689.1,39.5h-1v-0.8h1V39.5z M689.1,43.9h-1v-3.6h1V43.9z M691.2,40.7L691.2,40.7c0.2-0.3,0.5-0.4,0.9-0.4
			c0.4,0,0.6,0.2,0.8,0.5c0.2-0.3,0.5-0.5,0.9-0.5c0.5,0,0.9,0.3,0.9,0.8v2.9h-1v-2.5c0-0.3-0.1-0.6-0.4-0.6c-0.3,0-0.4,0.2-0.4,0.6
			v2.5h-1v-2.5c0-0.3-0.1-0.6-0.4-0.6c-0.3,0-0.4,0.2-0.4,0.6v2.5h-1v-3.6h1L691.2,40.7L691.2,40.7z M697.4,38.7h1.1l0.8,3.8h0
			l0.9-3.8h1.1l-1.4,5.2h-1.3L697.4,38.7z M704.7,43.2c0,0.2,0,0.4,0.1,0.7h-0.9l0-0.5h0c-0.2,0.4-0.5,0.6-0.9,0.6
			c-0.7,0-1-0.5-1-1.2c0-1.2,0.9-1.2,1.9-1.2v-0.3c0-0.3,0-0.5-0.4-0.5c-0.4,0-0.4,0.3-0.4,0.6h-1c0-0.4,0.1-0.7,0.4-0.9
			c0.2-0.2,0.6-0.2,1-0.2c1.3,0,1.4,0.6,1.4,1.2V43.2L704.7,43.2z M702.8,42.8c0,0.3,0,0.6,0.4,0.6c0.6,0,0.5-0.8,0.5-1.2
			C703.2,42.2,702.8,42.1,702.8,42.8 M705.9,43.9v-5.2h1v3.1h0l0.9-1.5h1.1l-1,1.6l1.1,2h-1.1l-0.9-2h0v2H705.9z M711.4,39.4
			c-0.4,0-0.5,0.1-0.5,0.5v0.4h0.5v0.6h-0.5v3h-1v-3h-0.5v-0.6h0.5c0-1-0.1-1.6,1.1-1.6c0.1,0,0.2,0,0.4,0L711.4,39.4L711.4,39.4z
			 M713.3,43.9h-1v-3.6h1V43.9z M670.2,46.7h-0.5v-0.5h0.5V46.7z M670.2,50.6h-0.5v-3.8h0.5V50.6z M672.1,50.6
			c-0.6,0-0.9-0.3-0.9-0.9h0.5c0,0.1,0,0.5,0.4,0.5c0.3,0,0.5-0.1,0.5-0.4c0-0.5-1.3-0.5-1.3-1.3c0-0.3,0.2-0.7,0.9-0.7
			c0.5,0,0.9,0.2,0.8,0.8h-0.5c0-0.3-0.1-0.4-0.4-0.4c-0.2,0-0.4,0.1-0.4,0.4c0,0.5,1.3,0.5,1.3,1.3C673,50.4,672.6,50.6,672.1,50.6
			 M673.9,47.9v-0.5l0.4-0.2v0.7h0.6v0.3h-0.6v1.6c0,0.2,0,0.4,0.4,0.4c0,0,0.1,0,0.2,0v0.3c-0.1,0-0.3,0-0.4,0
			c-0.4,0-0.6-0.2-0.6-0.5v-1.9h-0.4v-0.3H673.9z M677,50.2L677,50.2c-0.1,0.3-0.3,0.4-0.7,0.4c-0.6,0-0.7-0.4-0.7-0.9
			c0-0.8,0.8-0.8,1.4-0.8c0-0.4,0-0.7-0.4-0.7c-0.3,0-0.4,0.2-0.4,0.5h-0.5c0-0.6,0.3-0.8,0.9-0.8c0.7,0,0.9,0.4,0.9,0.8V50
			c0,0.2,0,0.4,0.1,0.6H677L677,50.2L677,50.2z M676,49.8c0,0.3,0.1,0.5,0.4,0.5c0.3,0,0.6-0.2,0.5-1C676.6,49.3,676,49.2,676,49.8
			 M679.9,50.6v-1.8c0-0.3-0.1-0.5-0.5-0.5c-0.5,0-0.5,0.4-0.5,0.8v1.6h-0.4v-2.1c0-0.2,0-0.4,0-0.5h0.5v0.3h0
			c0.2-0.3,0.4-0.4,0.7-0.4c0.6,0,0.7,0.3,0.7,0.9v1.8L679.9,50.6L679.9,50.6z M681.8,50.6h-0.4v-3.8h0.4v1.4h0
			c0.1-0.2,0.3-0.3,0.6-0.3c0.9,0,0.9,0.8,0.9,1.4c0,1.2-0.4,1.3-0.8,1.3c-0.3,0-0.5-0.1-0.6-0.4h0V50.6L681.8,50.6z M682.3,50.3
			c0.5,0,0.5-0.6,0.5-1c0-0.7-0.1-1.1-0.5-1.1c-0.5,0-0.5,0.6-0.5,0.9C681.8,49.6,681.8,50.3,682.3,50.3 M685.5,47.9h0.4V50
			c0,0.2,0,0.4,0,0.6h-0.5v-0.3h0c-0.1,0.2-0.4,0.4-0.7,0.4c-0.5,0-0.7-0.2-0.7-0.7v-2h0.4v1.8c0,0.3,0.1,0.5,0.4,0.5
			c0.2,0,0.5-0.2,0.5-0.6V47.9L685.5,47.9z M687.4,50.6H687v-3.8h0.4V50.6z"/>
	</g>
	<g>
		<defs>
			<rect id="SVGID_13_" x="328" y="-42.1" width="684.2" height="112.1"/>
		</defs>
		<clipPath id="SVGID_14_">
			<use xlink:href="#SVGID_13_"  overflow="visible"/>
		</clipPath>
		<path clip-path="url(#SVGID_14_)" fill="#E30613" d="M681-15.1c2.2-2.6,0.8-7.5,0.8-7.5c-0.1,0.7-0.5,1.9-2.4,3.8l-4.5,4.2
			c-3.6,3.6-1.1,8.8-1.1,8.8c0.4-2.2,1.3-3.6,2.7-5L681-15.1z"/>
	</g>
</g>
</svg>
